# xmcd
#
# Track frame offsets:
# 150
# 5380
# 27623
# 34510
# 45303
# 59206
# 74915
# 88949
# 96187
# 118853
# 136749
# 148740
# 158256
# 170182
# 187631
# 196186
# 209564
# 215303
# 228746
# 243664
# 259436
# 265684
# 281840
#
# Disc length: 3954 seconds
#
#
# Revision: 0
# Processed by: cddbd v1.4PL0 Copyright (c) Steve Scherf et al.
# Submitted via: FreeRIP 2.40 
#
DISCID=610f7017
DTITLE=Doc Watson - Válogatás
DYEAR=2002
DGENRE=Country
TTITLE0=Turkey In The Straw
TTITLE1=Bluegrass Stomp
TTITLE2=Cripple Creek
TTITLE3=Deep River Blues
TTITLE4=Freight Train Boogie
TTITLE5=In The Jailhouse Now
TTITLE6=John Henry
TTITLE7=Lonesome Banjo
TTITLE8=Mama, Don't Allow
TTITLE9=Mountain Dew
TTITLE10=My Rose Of Old Kentucky
TTITLE11=Riding That Midnight Train
TTITLE12=Sitting On Top Of The World
TTITLE13=St. James Infirmary
TTITLE14=Steel Guitar Rag
TTITLE15=The Wreck Of The Old Number Nine
TTITLE16=Blackberry Blossom
TTITLE17=Wabash Cannonball
TTITLE18=Will The Circle Be Unbroken
TTITLE19=Country Blues
TTITLE20=Doc's Guitar
TTITLE21=Tennessee Stud, Bluegrass
TTITLE22=Tom Dooley
EXTD=
EXTT0=
EXTT1=
EXTT2=
EXTT3=
EXTT4=
EXTT5=
EXTT6=
EXTT7=
EXTT8=
EXTT9=
EXTT10=
EXTT11=
EXTT12=
EXTT13=
EXTT14=
EXTT15=
EXTT16=
EXTT17=
EXTT18=
EXTT19=
EXTT20=
EXTT21=
EXTT22=
PLAYORDER=
